SplineFontDB: 3.0
FontName: Ludum-Dairy-0.2.0
FullName: Ludum Dairy
FamilyName: Ludum Dairy
Weight: Regular
Copyright: Copyright (c) 2019, Mike Kasprzak
Version: 0.2.0
ItalicAngle: 0
UnderlinePosition: -110
UnderlineWidth: 55
Ascent: 900
Descent: 200
InvalidEm: 0
LayerCount: 2
Layer: 0 0 "Back" 1
Layer: 1 0 "Fore" 0
XUID: [1021 368 -782376873 13616642]
FSType: 0
OS2Version: 0
OS2_WeightWidthSlopeOnly: 0
OS2_UseTypoMetrics: 1
CreationTime: 1558671128
ModificationTime: 1567368196
PfmFamily: 17
TTFWeight: 400
TTFWidth: 5
LineGap: 99
VLineGap: 0
OS2TypoAscent: 0
OS2TypoAOffset: 1
OS2TypoDescent: 0
OS2TypoDOffset: 1
OS2TypoLinegap: 99
OS2WinAscent: 0
OS2WinAOffset: 1
OS2WinDescent: 0
OS2WinDOffset: 1
HheadAscent: 0
HheadAOffset: 1
HheadDescent: 0
HheadDOffset: 1
OS2Vendor: 'PfEd'
Lookup: 258 0 0 "O_Z" { "O_Z" [165,16,0] "O_Z-1" [165,16,0] } []
MarkAttachClasses: 1
DEI: 91125

StartChar: L
Encoding: 76 76 0
Width: 650
VWidth: 0
Flags: W
HStem: 0 300<313.11 600> 880 20G<0 300>
VStem: 0 300<313.11 900>
LayerCount: 2
Fore
SplineSet
0 900 m 1
 300 900 l 1
 300 350 l 2
 300 325 325 300 350 300 c 2
 600 300 l 1
 600 0 l 1
 350 0 l 2
 150 0 0 150 0 350 c 2
 0 900 l 1
EndSplineSet
Validated: 1
EndChar

StartChar: D
Encoding: 68 68 1
Width: 825
VWidth: 0
Flags: W
HStem: 0 21G<0 525> 880 20G<0 525>
VStem: 0 325<300 600> 462 313<355.364 544.636>
LayerCount: 2
Fore
SplineSet
0 900 m 1
 133 900 267 900 400 900 c 0
 650 900 775 675 775 450 c 0
 775 225 650 0 400 0 c 0
 267 0 133 0 0 0 c 1
 0 900 l 1
325 600 m 1
 325 300 l 1
 350 300 l 2
 425 300 462 375 462 450 c 0
 462 525 425 600 350 600 c 2
 325 600 l 1
EndSplineSet
Validated: 1
EndChar

StartChar: o
Encoding: 111 111 2
Width: 750
VWidth: 0
Flags: W
HStem: 0 21G<250 450> 680 20G<250 450>
LayerCount: 2
Fore
SplineSet
350 0 m 0
 150 0 0 150 0 350 c 0
 0 550 150 700 350 700 c 0
 550 700 700 550 700 350 c 0
 700 150 550 0 350 0 c 0
350 300 m 0
 375 300 400 325 400 350 c 0
 400 375 375 400 350 400 c 0
 325 400 300 375 300 350 c 0
 300 325 325 300 350 300 c 0
EndSplineSet
Validated: 1
EndChar

StartChar: a
Encoding: 97 97 3
Width: 750
VWidth: 0
Flags: W
HStem: 0 21G<250 700> 680 20G<250 450>
LayerCount: 2
Fore
SplineSet
700 0 m 1
 350 0 l 2
 150 0 0 150 0 350 c 0
 0 550 150 700 350 700 c 0
 550 700 700 550 700 350 c 2
 700 0 l 1
400 300 m 1
 400 350 l 2
 400 375 375 400 350 400 c 0
 325 400 300 375 300 350 c 0
 300 325 325 300 350 300 c 2
 400 300 l 1
EndSplineSet
Validated: 1
EndChar

StartChar: d
Encoding: 100 100 4
Width: 751
VWidth: 0
Flags: W
HStem: 0 21G<250 450> 830 20G<400 701>
VStem: 400 301<313.11 400 700 850>
LayerCount: 2
Fore
SplineSet
400 700 m 1
 400 850 l 1
 701 850 l 1
 700 350 l 2
 700 150 550 0 350 0 c 0
 150 0 0 150 0 350 c 0
 0 550 150 700 350 700 c 2
 400 700 l 1
400 400 m 1
 350 400 l 2
 325 400 300 375 300 350 c 0
 300 325 325 300 350 300 c 0
 375 300 400 325 400 350 c 2
 400 400 l 1
EndSplineSet
Validated: 1
EndChar

StartChar: u
Encoding: 117 117 5
Width: 750
VWidth: 0
Flags: W
HStem: 0 21G<250 450> 680 20G<0 302 400 698.114>
VStem: 0 300<313.11 700> 400 300<313.11 700>
LayerCount: 2
Fore
SplineSet
700 350 m 2
 700 150 550 0 350 0 c 0
 150 0 0 150 0 350 c 2
 0 700 l 1
 302 700 l 1
 300 350 l 2
 300 325 325 300 350 300 c 0
 375 300 400 325 400 350 c 2
 400 700 l 1
 698 700 l 1
 700 350 l 2
EndSplineSet
Validated: 1
EndChar

StartChar: e
Encoding: 101 101 6
Width: 750
VWidth: 0
Flags: W
HStem: 0 350<304.088 398.295> 680 20G<250 450>
LayerCount: 2
Fore
SplineSet
630 135 m 1
 567 52 467 0 350 0 c 0
 150 0 0 150 0 350 c 0
 0 550 150 700 350 700 c 0
 550 700 700 550 700 350 c 0
 700 315 696 281 687 250 c 1
 400 250 l 1
 630 135 l 1
400 350 m 1
 400 375 l 2
 400 400 375 425 350 425 c 0
 325 425 300 400 300 375 c 2
 300 350 l 1
 400 350 l 1
EndSplineSet
Validated: 1
EndChar

StartChar: m
Encoding: 109 109 7
Width: 1150
VWidth: 0
Flags: W
HStem: 0 21G<1.88571 300 398 700 798 1100> 680 20G<250 388 712 850>
VStem: 2 298<0 386.89> 398 302<0 390.771> 798 302<0 386.89>
LayerCount: 2
Fore
SplineSet
0 350 m 2
 0 550 150 700 350 700 c 0
 426 700 494 678 550 641 c 1
 606 678 674 700 750 700 c 0
 950 700 1100 550 1100 350 c 2
 1100 0 l 1
 798 0 l 1
 800 350 l 2
 800 375 775 400 750 400 c 0
 725 400 700 375 700 350 c 2
 700 0 l 1
 398 0 l 1
 400 350 l 2
 400 375 375 400 350 400 c 0
 325 400 300 375 300 350 c 2
 300 0 l 1
 2 0 l 1
 0 350 l 2
EndSplineSet
Validated: 1
EndChar

StartChar: r
Encoding: 114 114 8
Width: 500
VWidth: 0
Flags: W
HStem: 0 21G<1.88571 300> 680 20G<250 450>
VStem: 2 298<0 386.89>
LayerCount: 2
Fore
SplineSet
350 400 m 2
 325 400 300 375 300 350 c 2
 300 0 l 1
 2 0 l 1
 0 350 l 2
 0 550 150 700 350 700 c 2
 450 700 l 1
 450 400 l 1
 350 400 l 2
EndSplineSet
Validated: 1
EndChar

StartChar: n
Encoding: 110 110 9
Width: 750
VWidth: 0
Flags: W
HStem: 0 21G<1.88571 300 398 700> 680 20G<250 450>
VStem: 2 298<0 386.89> 398 302<0 386.89>
LayerCount: 2
Fore
SplineSet
0 350 m 2
 0 550 150 700 350 700 c 0
 550 700 700 550 700 350 c 2
 700 0 l 1
 398 0 l 1
 400 350 l 2
 400 375 375 400 350 400 c 0
 325 400 300 375 300 350 c 2
 300 0 l 1
 2 0 l 1
 0 350 l 2
EndSplineSet
Validated: 1
EndChar

StartChar: zero
Encoding: 48 48 11
Width: 750
VWidth: 0
Flags: W
HStem: 0 21G<250 450> 880 20G<250 450>
VStem: 0 300<313.11 586.89> 400 300<313.11 586.89>
LayerCount: 2
Fore
SplineSet
400 350 m 2
 400 550 l 2
 400 575 375 600 350 600 c 0
 325 600 300 575 300 550 c 2
 300 350 l 2
 300 325 325 300 350 300 c 0
 375 300 400 325 400 350 c 2
700 350 m 2
 700 150 550 0 350 0 c 0
 150 0 0 150 0 350 c 2
 0 550 l 2
 0 750 150 900 350 900 c 0
 550 900 700 750 700 550 c 2
 700 350 l 2
EndSplineSet
Validated: 1
EndChar

StartChar: O
Encoding: 79 79 12
Width: 950
VWidth: 0
Flags: W
HStem: 0 300<378.777 521.223> 600 300<378.777 521.223>
VStem: 0 319<363.387 536.613> 581 319<363.387 536.613>
LayerCount: 2
Fore
SplineSet
450 0 m 0
 150 0 0 225 0 450 c 0
 0 675 150 900 450 900 c 0
 750 900 900 675 900 450 c 0
 900 225 750 0 450 0 c 0
450 300 m 0
 538 300 581 375 581 450 c 0
 581 525 538 600 450 600 c 0
 362 600 319 525 319 450 c 0
 319 375 362 300 450 300 c 0
EndSplineSet
Validated: 1
EndChar

StartChar: one
Encoding: 49 49 13
Width: 500
VWidth: 0
Flags: W
HStem: 0 21G<150 450> 880 20G<140 450>
VStem: 150 300<0 600>
LayerCount: 2
Fore
SplineSet
0 600 m 1
 150 900 l 1
 450 900 l 1
 450 0 l 1
 150 0 l 1
 150 600 l 1
 0 600 l 1
EndSplineSet
Validated: 1
EndChar

StartChar: eight
Encoding: 56 56 14
Width: 750
VWidth: 0
Flags: W
HStem: 0 250<311.169 388.831> 350 200<309.229 390.771> 650 250<311.169 388.831>
CounterMasks: 1 e0
LayerCount: 2
Fore
SplineSet
36 450 m 1
 13 491 0 541 0 600 c 0
 0 800 150 900 350 900 c 0
 550 900 700 800 700 600 c 0
 700 541 687 491 664 450 c 1
 687 409 700 359 700 300 c 0
 700 100 550 0 350 0 c 0
 150 0 0 100 0 300 c 0
 0 359 13 409 36 450 c 1
350 250 m 0
 375 250 400 275 400 300 c 0
 400 325 375 350 350 350 c 0
 325 350 300 325 300 300 c 0
 300 275 325 250 350 250 c 0
350 550 m 0
 375 550 400 575 400 600 c 0
 400 625 375 650 350 650 c 0
 325 650 300 625 300 600 c 0
 300 575 325 550 350 550 c 0
EndSplineSet
Validated: 1
EndChar

StartChar: p
Encoding: 112 112 15
Width: 750
VWidth: 0
Flags: W
HStem: -150 21G<0 300> 680 20G<250 450>
VStem: 0 300<-150 0 300 386.89>
LayerCount: 2
Fore
SplineSet
300 0 m 1
 300 -150 l 1
 0 -150 l 1
 0 350 l 2
 0 550 150 700 350 700 c 0
 550 700 700 550 700 350 c 0
 700 150 550 0 350 0 c 2
 300 0 l 1
300 300 m 1
 350 300 l 2
 375 300 400 325 400 350 c 0
 400 375 375 400 350 400 c 0
 325 400 300 375 300 350 c 2
 300 300 l 1
EndSplineSet
Validated: 1
EndChar

StartChar: q
Encoding: 113 113 16
Width: 750
VWidth: 0
Flags: W
HStem: -150 21G<400 700> 680 20G<250 450>
VStem: 400 300<-150 0 300 386.89>
LayerCount: 2
Fore
SplineSet
400 0 m 1
 350 0 l 2
 150 0 0 150 0 350 c 0
 0 550 150 700 350 700 c 0
 550 700 700 550 700 350 c 2
 700 -150 l 1
 400 -150 l 1
 400 0 l 1
400 300 m 1
 400 350 l 2
 400 375 375 400 350 400 c 0
 325 400 300 375 300 350 c 0
 300 325 325 300 350 300 c 2
 400 300 l 1
EndSplineSet
Validated: 1
EndChar

StartChar: b
Encoding: 98 98 17
Width: 751
VWidth: 0
Flags: W
HStem: 0 21G<251 451> 830 20G<0 301>
VStem: 0 301<313.11 400 700 850>
LayerCount: 2
Fore
SplineSet
301 700 m 1
 351 700 l 2
 551 700 701 550 701 350 c 0
 701 150 551 0 351 0 c 0
 151 0 1 150 1 350 c 2
 0 850 l 1
 301 850 l 1
 301 700 l 1
301 400 m 1
 301 350 l 2
 301 325 326 300 351 300 c 0
 376 300 401 325 401 350 c 0
 401 375 376 400 351 400 c 2
 301 400 l 1
EndSplineSet
Validated: 1
EndChar

StartChar: c
Encoding: 99 99 18
Width: 750
VWidth: 0
Flags: W
HStem: 0 21G<250 417> 680 20G<250 450>
VStem: 0 700<350 481.098>
LayerCount: 2
Fore
SplineSet
655 173 m 1
 596 68 484 0 350 0 c 0
 150 0 0 150 0 350 c 0
 0 550 150 700 350 700 c 0
 550 700 700 550 700 350 c 1
 300 350 l 1
 655 173 l 1
EndSplineSet
Validated: 1
EndChar

StartChar: h
Encoding: 104 104 19
Width: 750
VWidth: 0
Flags: W
HStem: 0 21G<0 300.05 400 700> 830 20G<0 301>
VStem: 0 301<0 400 700 850> 400 300<0 386.89>
LayerCount: 2
Fore
SplineSet
401 350 m 2
 401 375 376 400 351 400 c 2
 301 400 l 1
 300 0 l 1
 0 0 l 1
 0 850 l 1
 301 850 l 1
 301 700 l 1
 351 700 l 2
 551 700 700 550 700 350 c 2
 700 0 l 1
 400 0 l 1
 401 350 l 2
EndSplineSet
Validated: 1
EndChar

StartChar: j
Encoding: 106 106 20
Width: 500
VWidth: 0
Flags: W
HStem: -150 21G<0 200> 680 20G<150 450> 750 150<150 450>
VStem: 150 300<163.11 700 750 900>
LayerCount: 2
Fore
SplineSet
150 200 m 2
 150 700 l 1
 450 700 l 1
 450 200 l 2
 450 0 300 -150 100 -150 c 2
 0 -150 l 1
 0 150 l 1
 100 150 l 2
 125 150 150 175 150 200 c 2
450 900 m 1
 450 750 l 1
 150 750 l 1
 150 900 l 1
 450 900 l 1
EndSplineSet
Validated: 1
EndChar

StartChar: J
Encoding: 74 74 21
Width: 550
VWidth: 0
Flags: W
HStem: 0 300<0 186.89> 881 20G<200 500>
VStem: 200 300<313.11 900>
LayerCount: 2
Fore
SplineSet
200 900 m 1
 199 901 l 1
 500 900 l 1
 500 350 l 2
 500 150 350 0 150 0 c 2
 0 0 l 1
 0 300 l 1
 150 300 l 2
 175 300 200 325 200 350 c 2
 200 900 l 1
EndSplineSet
Validated: 1
EndChar

StartChar: l
Encoding: 108 108 22
Width: 350
VWidth: 0
Flags: W
HStem: 0 21G<0 300> 830 20G<0 300>
VStem: 0 300<0 850>
LayerCount: 2
Fore
SplineSet
0 850 m 1
 300 850 l 1
 300 0 l 1
 0 0 l 1
 0 850 l 1
EndSplineSet
Validated: 1
EndChar

StartChar: w
Encoding: 119 119 23
Width: 1100
VWidth: 0
Flags: W
HStem: 0 21G<250 388 662 800> 680 20G<0 302 400 652 750 1048.11>
VStem: 0 300<313.11 700> 400 250<309.229 700> 750 300<313.11 700>
CounterMasks: 1 38
LayerCount: 2
Fore
SplineSet
1050 350 m 2
 1050 150 900 0 700 0 c 0
 624 0 581 12 525 49 c 1
 469 12 426 0 350 0 c 0
 150 0 0 150 0 350 c 2
 0 700 l 1
 302 700 l 1
 300 350 l 2
 300 325 325 300 350 300 c 0
 375 300 400 325 400 350 c 2
 400 700 l 1
 652 700 l 1
 650 350 l 2
 650 325 675 300 700 300 c 0
 725 300 750 325 750 350 c 2
 750 700 l 1
 1048 700 l 1
 1050 350 l 2
EndSplineSet
Validated: 1
EndChar

StartChar: t
Encoding: 116 116 24
Width: 550
VWidth: 0
Flags: W
HStem: 0 300<313.11 500> 450 250<300 500> 830 20G<0 300>
VStem: 0 300<313.11 450 700 850>
LayerCount: 2
Fore
SplineSet
300 850 m 1
 300 700 l 1
 500 700 l 1
 500 450 l 1
 300 450 l 1
 300 417 300 383 300 350 c 0
 300 325 325 300 350 300 c 2
 500 300 l 1
 500 0 l 1
 350 0 l 2
 150 0 0 150 0 350 c 2
 0 850 l 1
 300 850 l 1
EndSplineSet
Validated: 1
EndChar

StartChar: v
Encoding: 118 118 25
Width: 850
VWidth: 0
Flags: W
HStem: 0 21G<340 460> 680 20G<0 310 490 800>
LayerCount: 2
Fore
SplineSet
450 0 m 1
 350 0 l 1
 0 700 l 1
 300 700 l 1
 400 500 l 1
 500 700 l 1
 800 700 l 1
 450 0 l 1
EndSplineSet
Validated: 1
EndChar

StartChar: g
Encoding: 103 103 26
Width: 750
VWidth: 0
Flags: W
HStem: -150 250<150 386.89> 150 200<311.169 390.836> 450 250<311.169 388.831>
LayerCount: 2
Fore
SplineSet
350 450 m 0
 325 450 300 425 300 400 c 0
 300 375 325 350 350 350 c 0
 375 350 400 375 400 400 c 0
 400 425 375 450 350 450 c 0
150 100 m 1
 350 100 l 2
 375 100 400 125 400 150 c 2
 400 152 l 1
 384 151 367 150 350 150 c 0
 150 150 0 200 0 400 c 0
 0 600 150 700 350 700 c 0
 550 700 700 550 700 350 c 2
 700 200 l 2
 700 0 550 -150 350 -150 c 2
 150 -150 l 1
 150 100 l 1
EndSplineSet
Validated: 1
EndChar

StartChar: y
Encoding: 121 121 27
Width: 850
VWidth: 0
Flags: W
HStem: -150 21G<75 385> 680 20G<0 310 490 800>
LayerCount: 2
Fore
SplineSet
75 -150 m 1
 250 200 l 1
 0 700 l 1
 300 700 l 1
 400 500 l 1
 500 700 l 1
 800 700 l 1
 375 -150 l 1
 75 -150 l 1
EndSplineSet
Validated: 1
EndChar

StartChar: i
Encoding: 105 105 28
Width: 350
VWidth: 0
Flags: W
HStem: 0 21G<0 300> 680 20G<0 300> 750 150<0 300>
VStem: 0 300<0 700 750 900>
LayerCount: 2
Fore
SplineSet
0 700 m 1
 300 700 l 1
 300 0 l 1
 0 0 l 1
 0 700 l 1
300 900 m 1
 300 750 l 1
 0 750 l 1
 0 900 l 1
 300 900 l 1
EndSplineSet
Validated: 1
EndChar

StartChar: k
Encoding: 107 107 29
Width: 800
VWidth: 0
Flags: W
HStem: 0 21G<0 300 440 750> 680 20G<415 700> 830 20G<0 300>
VStem: 0 300<0 300 450 850>
LayerCount: 2
Fore
SplineSet
300 0 m 1
 0 0 l 1
 0 850 l 1
 300 850 l 1
 300 450 l 1
 425 700 l 1
 700 700 l 1
 550 400 l 1
 750 0 l 1
 450 0 l 1
 300 300 l 1
 300 0 l 1
EndSplineSet
Validated: 1
EndChar

StartChar: K
Encoding: 75 75 30
Width: 800
VWidth: 0
Flags: W
HStem: 0 21G<0 300 440 750> 880 20G<0 300 440 750>
VStem: 0 300<0 300 600 900>
LayerCount: 2
Fore
SplineSet
300 0 m 1
 0 0 l 1
 0 900 l 1
 300 900 l 1
 300 600 l 1
 450 900 l 1
 750 900 l 1
 525 450 l 1
 750 0 l 1
 450 0 l 1
 300 300 l 1
 300 0 l 1
EndSplineSet
Validated: 1
EndChar

StartChar: s
Encoding: 115 115 31
Width: 747
VWidth: 0
Flags: W
HStem: 0 21G<267.5 441.5> 680 20G<258.5 432.5>
LayerCount: 2
Fore
SplineSet
3 398 m 1
 25 573 167 700 350 700 c 0
 515 700 646 598 687 450 c 1
 400 450 l 1
 697 302 l 1
 675 127 533 0 350 0 c 0
 185 0 54 102 13 250 c 1
 300 250 l 1
 3 398 l 1
EndSplineSet
Validated: 1
EndChar

StartChar: z
Encoding: 122 122 32
Width: 700
VWidth: 0
Flags: W
HStem: 0 300<450 650> 400 300<0 200>
LayerCount: 2
Fore
SplineSet
0 700 m 1
 650 700 l 1
 450 300 l 1
 650 300 l 1
 650 0 l 1
 0 0 l 1
 200 400 l 1
 0 400 l 1
 0 700 l 1
EndSplineSet
Validated: 1
EndChar

StartChar: Z
Encoding: 90 90 33
Width: 800
VWidth: 0
Flags: W
HStem: 0 300<450 750> 600 300<0 300>
LayerCount: 2
Fore
SplineSet
0 900 m 1
 750 900 l 1
 450 300 l 1
 750 300 l 1
 750 0 l 1
 0 0 l 1
 300 600 l 1
 0 600 l 1
 0 900 l 1
EndSplineSet
Validated: 1
EndChar

StartChar: X
Encoding: 88 88 34
Width: 900
VWidth: 0
Flags: W
HStem: 0 21G<0 310 540 850> 880 20G<0 310 540 850>
LayerCount: 2
Fore
SplineSet
550 0 m 1
 425 250 l 1
 300 0 l 1
 0 0 l 1
 225 450 l 1
 0 900 l 1
 300 900 l 1
 425 650 l 1
 550 900 l 1
 850 900 l 1
 625 450 l 1
 850 0 l 1
 550 0 l 1
EndSplineSet
Validated: 1
EndChar

StartChar: P
Encoding: 80 80 35
Width: 750
VWidth: 0
Flags: W
HStem: 0 21G<0 300> 880 20G<0 450>
VStem: 0 300<0 200 475 625> 400 300<492.253 607.747>
LayerCount: 2
Fore
SplineSet
300 200 m 1
 300 0 l 1
 0 0 l 1
 0 900 l 1
 350 900 l 2
 550 900 700 750 700 550 c 0
 700 350 550 200 350 200 c 2
 300 200 l 1
300 475 m 1
 325 475 l 2
 375 475 400 500 400 550 c 0
 400 600 375 625 325 625 c 2
 300 625 l 1
 300 475 l 1
EndSplineSet
Validated: 1
EndChar

StartChar: S
Encoding: 83 83 36
Width: 750
VWidth: 0
Flags: W
HStem: 0 300<0 400> 600 300<300 700>
LayerCount: 2
Fore
SplineSet
400 0 m 2
 0 0 l 1
 0 300 l 1
 400 300 l 1
 400 325 375 350 350 350 c 2
 275 350 l 2
 125 350 0 475 0 625 c 0
 0 775 100 900 300 900 c 2
 700 900 l 1
 700 600 l 1
 300 600 l 1
 300 575 325 550 350 550 c 2
 425 550 l 2
 575 550 700 425 700 275 c 0
 700 125 600 0 400 0 c 2
EndSplineSet
Validated: 1
EndChar

StartChar: f
Encoding: 102 102 37
Width: 550
VWidth: 0
Flags: W
HStem: 0 21G<0 300> 300 200<300 500> 550 300<313.11 500>
VStem: 0 300<0 300 500 536.89>
LayerCount: 2
Fore
SplineSet
300 0 m 1
 0 0 l 1
 0 500 l 2
 0 700 150 850 350 850 c 2
 500 850 l 1
 500 550 l 1
 350 550 l 2
 325 550 300 525 300 500 c 1
 367 500 433 500 500 500 c 1
 500 300 l 1
 300 300 l 1
 300 0 l 1
EndSplineSet
Validated: 1
EndChar

StartChar: x
Encoding: 120 120 38
Width: 800
VWidth: 0
Flags: W
HStem: 0 21G<0 310 440 750> 680 20G<0 310 440 750>
LayerCount: 2
Fore
SplineSet
450 0 m 1
 375 150 l 1
 300 0 l 1
 0 0 l 1
 175 350 l 1
 0 700 l 1
 300 700 l 1
 375 550 l 1
 450 700 l 1
 750 700 l 1
 575 350 l 1
 750 0 l 1
 450 0 l 1
EndSplineSet
Validated: 1
EndChar

StartChar: N
Encoding: 78 78 39
Width: 800
VWidth: 0
Flags: W
HStem: 0 21G<0 300 440 750> 880 20G<0 310 450 750>
VStem: 0 300<0 300> 450 300<600 900>
LayerCount: 2
Fore
SplineSet
0 900 m 1
 300 900 l 1
 450 600 l 1
 450 900 l 1
 750 900 l 1
 750 0 l 1
 450 0 l 1
 300 300 l 1
 300 0 l 1
 0 0 l 1
 0 900 l 1
EndSplineSet
Validated: 1
EndChar

StartChar: U
Encoding: 85 85 40
Width: 750
VWidth: 0
Flags: W
HStem: 0 21G<250 450> 880 20G<0 302 400 698.073>
VStem: 0 300<313.11 900> 400 300<313.11 900>
LayerCount: 2
Fore
SplineSet
700 350 m 2
 700 150 550 0 350 0 c 0
 150 0 0 150 0 350 c 2
 0 900 l 1
 302 900 l 1
 300 350 l 2
 300 325 325 300 350 300 c 0
 375 300 400 325 400 350 c 2
 400 900 l 1
 698 900 l 1
 700 350 l 2
EndSplineSet
Validated: 1
EndChar

StartChar: T
Encoding: 84 84 41
Width: 750
VWidth: 0
Flags: W
HStem: 0 21G<200 500> 600 300<0 200 500 700>
VStem: 200 300<0 600>
LayerCount: 2
Fore
SplineSet
0 900 m 1
 700 900 l 1
 700 600 l 1
 500 600 l 1
 500 0 l 1
 200 0 l 1
 200 600 l 1
 0 600 l 1
 0 900 l 1
EndSplineSet
Validated: 1
EndChar

StartChar: R
Encoding: 82 82 42
Width: 750
VWidth: 0
Flags: W
HStem: 0 21G<0 300 390 700> 880 20G<0 450>
VStem: 0 300<0 200 475 625> 400 300<490.318 607.747>
LayerCount: 2
Fore
SplineSet
400 0 m 1
 300 200 l 1
 300 0 l 1
 0 0 l 1
 0 900 l 1
 350 900 l 2
 550 900 700 750 700 550 c 0
 700 433 648 333 565 270 c 1
 700 0 l 1
 400 0 l 1
300 475 m 1
 325 475 l 2
 375 475 400 500 400 550 c 0
 400 600 375 625 325 625 c 2
 300 625 l 1
 300 475 l 1
EndSplineSet
Validated: 1
EndChar

StartChar: M
Encoding: 77 77 43
Width: 950
VWidth: 0
Flags: W
HStem: 0 21G<0 300 440 460 600 900> 880 20G<0 310 590 900>
VStem: 0 300<0 300> 600 300<0 300>
LayerCount: 2
Fore
SplineSet
600 900 m 1
 900 900 l 1
 900 0 l 1
 600 0 l 1
 600 300 l 1
 450 0 l 1
 300 300 l 1
 300 0 l 1
 0 0 l 1
 0 900 l 1
 300 900 l 1
 450 600 l 1
 600 900 l 1
EndSplineSet
Validated: 1
EndChar

StartChar: I
Encoding: 73 73 44
Width: 650
VWidth: 0
Flags: W
HStem: 0 300<0 150 450 600> 600 300<0 150 450 600>
VStem: 0 600<0 300 600 900>
LayerCount: 2
Fore
SplineSet
0 900 m 1
 600 900 l 1
 600 600 l 1
 450 600 l 1
 450 300 l 1
 600 300 l 1
 600 0 l 1
 0 0 l 1
 0 300 l 1
 150 300 l 1
 150 600 l 1
 0 600 l 1
 0 900 l 1
EndSplineSet
Validated: 1
EndChar

StartChar: H
Encoding: 72 72 45
Width: 750
VWidth: 0
Flags: W
HStem: 0 21G<0 300 400 700> 880 20G<0 300 400 700>
VStem: 0 300<0 300 600 900> 400 300<0 300 600 900>
LayerCount: 2
Fore
SplineSet
0 900 m 1
 300 900 l 1
 300 600 l 1
 400 600 l 1
 400 900 l 1
 700 900 l 1
 700 0 l 1
 400 0 l 1
 400 300 l 1
 300 300 l 1
 300 0 l 1
 0 0 l 1
 0 900 l 1
EndSplineSet
Validated: 1
EndChar

StartChar: F
Encoding: 70 70 46
Width: 650
VWidth: 0
Flags: W
HStem: 0 21G<0 300> 350 200<300 500> 600 300<300 600>
VStem: 0 300<0 350 550 600>
LayerCount: 2
Fore
SplineSet
0 900 m 1
 600 900 l 1
 600 600 l 1
 300 600 l 1
 300 550 l 1
 500 550 l 1
 500 350 l 1
 300 350 l 1
 300 0 l 1
 0 0 l 1
 0 900 l 1
EndSplineSet
Validated: 1
EndChar

StartChar: E
Encoding: 69 69 47
Width: 650
VWidth: 0
Flags: W
HStem: 0 300<300 600> 350 200<300 500> 600 300<300 600>
VStem: 0 600<0 300 600 900>
CounterMasks: 1 e0
LayerCount: 2
Fore
SplineSet
500 350 m 1
 300 350 l 1
 300 300 l 1
 600 300 l 1
 600 0 l 1
 0 0 l 1
 0 900 l 1
 600 900 l 1
 600 600 l 1
 300 600 l 1
 300 550 l 1
 500 550 l 1
 500 350 l 1
EndSplineSet
Validated: 1
EndChar

StartChar: A
Encoding: 65 65 48
Width: 950
VWidth: 0
Flags: W
HStem: 0 21G<0 305 595 900> 880 20G<220 680>
LayerCount: 2
Fore
SplineSet
500 400 m 1
 450 600 l 1
 400 400 l 1
 500 400 l 1
225 900 m 1
 675 900 l 1
 900 0 l 1
 600 0 l 1
 550 200 l 1
 350 200 l 1
 300 0 l 1
 0 0 l 1
 225 900 l 1
EndSplineSet
Validated: 1
EndChar

StartChar: B
Encoding: 66 66 49
Width: 750
VWidth: 0
Flags: W
HStem: 0 21G<0 450> 375 150<300 385.645> 880 20G<0 450>
VStem: 0 300<225 375 525 675> 400 300<241.913 360.688 539.312 658.087>
LayerCount: 2
Fore
SplineSet
657 450 m 1
 684 407 700 356 700 300 c 0
 700 125 550 0 350 0 c 0
 233 0 117 0 0 0 c 1
 0 900 l 1
 117 900 233 900 350 900 c 0
 550 900 700 775 700 600 c 0
 700 544 684 493 657 450 c 1
300 375 m 1
 300 225 l 1
 325 225 l 2
 375 225 400 250 400 300 c 0
 400 350 375 375 325 375 c 2
 300 375 l 1
300 525 m 1
 325 525 l 2
 375 525 400 550 400 600 c 0
 400 650 375 675 325 675 c 2
 300 675 l 1
 300 525 l 1
EndSplineSet
Validated: 1
EndChar

StartChar: C
Encoding: 67 67 50
Width: 940
VWidth: 0
Flags: W
HStem: 0 250<378.296 522.147> 650 250<378.296 522.147>
VStem: 0 300<342.081 557.919>
LayerCount: 2
Fore
SplineSet
450 250 m 0
 515 250 559 293 582 350 c 1
 890 350 l 1
 852 163 705 0 450 0 c 0
 150 0 0 225 0 450 c 0
 0 675 150 900 450 900 c 0
 705 900 852 737 890 550 c 1
 582 550 l 1
 559 607 515 650 450 650 c 0
 350 650 300 550 300 450 c 0
 300 350 350 250 450 250 c 0
EndSplineSet
Validated: 1
EndChar

StartChar: W
Encoding: 87 87 51
Width: 1400
VWidth: 0
Flags: W
HStem: 0 21G<268.889 581.116 768.884 1081.11> 880 20G<0 355 545 805 995 1350>
LayerCount: 2
Fore
SplineSet
575 0 m 1
 275 0 l 1
 0 900 l 1
 350 900 l 1
 450 500 l 1
 550 900 l 1
 800 900 l 1
 900 500 l 1
 1000 900 l 1
 1350 900 l 1
 1075 0 l 1
 775 0 l 1
 675 327 l 1
 575 0 l 1
EndSplineSet
Validated: 1
EndChar

StartChar: G
Encoding: 71 71 52
Width: 950
VWidth: 0
Flags: W
HStem: 0 250<378.296 521.495> 350 150<450 582> 650 250<378.296 522.147>
VStem: 0 300<342.081 557.919>
LayerCount: 2
Fore
SplineSet
450 250 m 0
 515 250 559 293 582 350 c 1
 450 350 l 1
 450 500 l 1
 900 500 l 1
 900 450 l 2
 900 225 750 0 450 0 c 0
 150 0 0 225 0 450 c 0
 0 675 150 900 450 900 c 0
 705 900 852 737 890 550 c 1
 582 550 l 1
 559 607 515 650 450 650 c 0
 350 650 300 550 300 450 c 0
 300 350 350 250 450 250 c 0
EndSplineSet
Validated: 1
EndChar

StartChar: V
Encoding: 86 86 53
Width: 950
VWidth: 0
Flags: W
HStem: 0 21G<268.889 631.111> 880 20G<0 355 545 900>
LayerCount: 2
Fore
SplineSet
625 0 m 1
 275 0 l 1
 0 900 l 1
 350 900 l 1
 450 500 l 1
 550 900 l 1
 900 900 l 1
 625 0 l 1
EndSplineSet
Validated: 1
EndChar

StartChar: Y
Encoding: 89 89 54
Width: 900
VWidth: 0
Flags: W
HStem: 0 21G<275 575> 880 20G<0 310 540 850>
VStem: 275 300<0 350>
LayerCount: 2
Fore
SplineSet
575 350 m 1
 575 0 l 1
 275 0 l 1
 275 350 l 1
 0 900 l 1
 300 900 l 1
 425 650 l 1
 550 900 l 1
 850 900 l 1
 575 350 l 1
EndSplineSet
Validated: 1
EndChar

StartChar: nine
Encoding: 57 57 55
Width: 750
VWidth: 0
Flags: W
HStem: 0 21G<400 700> 650 250<311.169 388.831>
VStem: 400 300<0 300 550 636.328>
LayerCount: 2
Fore
SplineSet
400 300 m 1
 350 300 l 2
 150 300 0 400 0 600 c 0
 0 800 150 900 350 900 c 0
 550 900 700 800 700 600 c 2
 700 0 l 1
 400 0 l 1
 400 300 l 1
400 550 m 1
 400 600 l 2
 400 625 375 650 350 650 c 0
 325 650 300 625 300 600 c 0
 300 575 325 550 350 550 c 2
 400 550 l 1
EndSplineSet
Validated: 1
EndChar

StartChar: two
Encoding: 50 50 56
Width: 752
VWidth: 0
Flags: W
HStem: 0 21G<0 700.133> 880 20G<250 450>
VStem: 400 300<466.705 588.469>
LayerCount: 2
Fore
SplineSet
600 350 m 2
 550 300 l 1
 702 300 l 1
 700 0 l 1
 0 0 l 1
 0 50 l 1
 297 350 400 450 400 550 c 0
 400 582 375 600 350 600 c 0
 325 600 300 575 300 550 c 1
 0 550 l 1
 0 750 150 900 350 900 c 0
 550 900 700 775 700 575 c 0
 700 550 700 450 600 350 c 2
EndSplineSet
Validated: 1
EndChar

StartChar: three
Encoding: 51 51 57
Width: 750
VWidth: 0
Flags: W
HStem: 0 300<0 350> 350 200<100 350> 600 300<0 350>
CounterMasks: 1 e0
LayerCount: 2
Fore
SplineSet
700 350 m 2
 700 150 550 0 350 0 c 2
 0 0 l 1
 0 300 l 1
 350 300 l 1
 350 350 l 1
 100 350 l 1
 100 550 l 1
 350 550 l 1
 350 600 l 1
 0 600 l 1
 0 900 l 1
 350 900 l 2
 550 900 698 750 698 550 c 2
 700 350 l 2
EndSplineSet
Validated: 1
EndChar

StartChar: four
Encoding: 52 52 58
Width: 750
VWidth: 0
Flags: W
HStem: 0 21G<400 700> 880 20G<0 300 400 700>
VStem: 0 300<613.11 900> 400 300<0 300 600 900>
LayerCount: 2
Fore
SplineSet
300 650 m 2
 300 625 325 600 350 600 c 2
 400 600 l 1
 400 900 l 1
 700 900 l 1
 700 0 l 1
 400 0 l 1
 400 300 l 1
 350 300 l 2
 150 300 0 450 0 650 c 2
 0 900 l 1
 300 900 l 1
 300 650 l 2
EndSplineSet
Validated: 1
EndChar

StartChar: five
Encoding: 53 53 59
Width: 750
VWidth: 0
Flags: W
HStem: 0 300<0 386.89> 600 300<300 700>
VStem: 0 700<218.902 300 350 550 600 900>
LayerCount: 2
Fore
SplineSet
700 350 m 2
 700 150 550 0 350 0 c 2
 0 0 l 1
 0 300 l 1
 350 300 l 2
 375 300 400 325 400 350 c 1
 0 350 l 1
 0 900 l 1
 700 900 l 1
 700 600 l 1
 300 600 l 1
 300 550 l 1
 700 550 l 1
 700 350 l 2
EndSplineSet
Validated: 1
EndChar

StartChar: seven
Encoding: 55 55 60
Width: 800
VWidth: 0
Flags: W
HStem: 0 21G<50 410> 600 300<0 350>
LayerCount: 2
Fore
SplineSet
750 700 m 1
 400 0 l 1
 50 0 l 1
 350 600 l 1
 0 600 l 1
 0 900 l 1
 750 900 l 1
 750 700 l 1
EndSplineSet
Validated: 1
EndChar

StartChar: six
Encoding: 54 54 61
Width: 750
VWidth: 0
Flags: W
HStem: 0 250<311.169 388.831> 350 200<309.164 388.831> 600 300<313.11 700>
LayerCount: 2
Fore
SplineSet
350 250 m 0
 375 250 400 275 400 300 c 0
 400 325 375 350 350 350 c 0
 325 350 300 325 300 300 c 0
 300 275 325 250 350 250 c 0
700 600 m 1
 350 600 l 2
 325 600 300 575 300 550 c 2
 300 548 l 1
 316 549 333 550 350 550 c 0
 550 550 700 500 700 300 c 0
 700 100 550 0 350 0 c 0
 150 0 0 150 0 350 c 2
 0 550 l 2
 0 750 150 900 350 900 c 2
 700 900 l 1
 700 600 l 1
EndSplineSet
Validated: 1
EndChar

StartChar: Q
Encoding: 81 81 62
Width: 950
VWidth: 0
Flags: W
HStem: 0 250<382.434 525.842> 650 250<378.296 521.704>
VStem: 0 300<342.081 557.919> 600 300<339.128 557.919>
LayerCount: 2
Fore
SplineSet
844 222 m 1
 900 0 l 1
 450 0 l 2
 150 0 0 225 0 450 c 0
 0 675 150 900 450 900 c 0
 750 900 900 675 900 450 c 0
 900 371 881 291 844 222 c 1
450 250 m 0
 550 250 600 350 600 450 c 0
 600 550 550 650 450 650 c 0
 350 650 300 550 300 450 c 0
 300 350 350 250 450 250 c 0
EndSplineSet
Validated: 1
EndChar
